<svg width="63" height="44" viewBox="0 0 63 44" fill="none" xmlns="http://www.w3.org/2000/svg">
<path d="M8.76 17.32H9.36C11.36 14.2 14.36 12.64 18.36 12.64C22.04 12.64 24.78 13.82 26.58 16.18C28.38 18.54 29.28 21.64 29.28 25.48V43H20.28V26.5C20.28 24.9 19.9 23.6 19.14 22.6C18.38 21.56 17.2 21.04 15.6 21.04C13.56 21.04 12 21.82 10.92 23.38C9.88 24.94 9.36 26.98 9.36 29.5V43H0.36V13.6H8.76V17.32ZM38.7506 43H30.3506V0.0399988H39.3506V12.64L38.7506 16.84H39.3506C40.0306 15.68 41.0706 14.7 42.4706 13.9C43.9106 13.06 45.7106 12.64 47.8706 12.64C49.7506 12.64 51.5506 13.02 53.2706 13.78C54.9906 14.54 56.4906 15.62 57.7706 17.02C59.0906 18.38 60.1306 20.02 60.8906 21.94C61.6506 23.86 62.0306 25.98 62.0306 28.3C62.0306 30.62 61.6506 32.74 60.8906 34.66C60.1306 36.58 59.0906 38.24 57.7706 39.64C56.4906 41 54.9906 42.06 53.2706 42.82C51.5506 43.58 49.7506 43.96 47.8706 43.96C45.7106 43.96 43.9106 43.56 42.4706 42.76C41.0706 41.92 40.0306 40.92 39.3506 39.76H38.7506V43ZM45.8906 35.56C46.8506 35.56 47.7506 35.4 48.5906 35.08C49.4706 34.72 50.2306 34.24 50.8706 33.64C51.5506 33 52.0706 32.24 52.4306 31.36C52.8306 30.44 53.0306 29.42 53.0306 28.3C53.0306 27.18 52.8306 26.18 52.4306 25.3C52.0706 24.42 51.5506 23.66 50.8706 23.02C50.2306 22.38 49.4706 21.9 48.5906 21.58C47.7506 21.22 46.8506 21.04 45.8906 21.04C44.9306 21.04 44.0106 21.22 43.1306 21.58C42.2906 21.9 41.5306 22.38 40.8506 23.02C40.2106 23.66 39.6906 24.42 39.2906 25.3C38.9306 26.18 38.7506 27.18 38.7506 28.3C38.7506 29.42 38.9306 30.44 39.2906 31.36C39.6906 32.24 40.2106 33 40.8506 33.64C41.5306 34.24 42.2906 34.72 43.1306 35.08C44.0106 35.4 44.9306 35.56 45.8906 35.56Z" fill="#0084FF"/>
</svg>
